<?xml version="1.0" encoding="utf-8"?>
<!-- Generator: Adobe Illustrator 25.4.1, SVG Export Plug-In . SVG Version: 6.00 Build 0)  -->
<svg version="1.1" id="Layer_1" xmlns="http://www.w3.org/2000/svg" xmlns:xlink="http://www.w3.org/1999/xlink" x="0px" y="0px"
	 viewBox="0 0 248.8 164.6" style="enable-background:new 0 0 248.8 164.6;" xml:space="preserve">
<style type="text/css">
	.st0{fill-rule:evenodd;clip-rule:evenodd;fill:#0033A1;stroke:#0033A1;stroke-width:0.9111;stroke-miterlimit:10;}
	.st1{fill-rule:evenodd;clip-rule:evenodd;fill:#0033A1;stroke:#0033A1;stroke-width:1.8221;stroke-miterlimit:10;}
</style>
<g id="Layer_2_00000047764228798855939980000000287906523137021059_">
</g>
<g id="Layer_3">
</g>
<g>
	<path class="st0" d="M20.9,156.4L20.9,156.4c0-3-1.5-4.4-4-5.4c1.5-0.9,2.8-2.2,2.8-4.7v-0.1c0-1.5-0.5-2.7-1.5-3.7
		c-1.2-1.2-3.2-1.9-5.6-1.9h-10v21.6h10.2C17.7,162.3,20.9,160.3,20.9,156.4 M7.3,144.9h4.7c2,0,3.1,0.8,3.1,2.2v0.1
		c0,1.6-1.3,2.3-3.4,2.3H7.3V144.9z M7.3,153.4h5.5c2.4,0,3.5,0.9,3.5,2.3v0.1c0,1.6-1.3,2.3-3.3,2.3H7.3V153.4z"/>
	<path class="st0" d="M29.9,140.7V153c0,6.4,3.5,9.6,9.3,9.6c5.8,0,9.4-3.2,9.4-9.8v-12.2h-4.7v12.4c0,3.4-1.8,5.2-4.6,5.2
		c-2.9,0-4.6-1.8-4.6-5.3v-12.2H29.9z"/>
	<polygon class="st0" points="58.8,140.7 58.8,162.3 74.2,162.3 74.2,158 63.5,158 63.5,140.7 	"/>
	<path class="st0" d="M81.6,140.7V153c0,6.4,3.5,9.6,9.3,9.6c5.8,0,9.4-3.2,9.4-9.8v-12.2h-4.7v12.4c0,3.4-1.7,5.2-4.6,5.2
		c-2.9,0-4.6-1.8-4.6-5.3v-12.2H81.6z"/>
	<polygon class="st0" points="120.3,162.3 120.3,145.1 126.8,145.1 126.8,140.7 109,140.7 109,145.1 115.6,145.1 115.6,162.3 	"/>
	<polygon class="st0" points="140.8,162.3 140.8,140.7 140.8,140.7 136,140.7 136,162.3 140.8,162.3 	"/>
	<rect x="136.1" y="132.8" class="st0" width="4.6" height="3.9"/>
	<path class="st0" d="M159.3,158.4c-2.5,0-4.5-1-6.4-2.6l-2.8,3.4c2.6,2.3,5.9,3.5,9.1,3.5c4.6,0,7.9-2.4,7.9-6.7v-0.1
		c0-3.8-2.5-5.3-6.8-6.5c-3.7-1-4.6-1.4-4.6-2.8v-0.1c0-1.1,1-1.9,2.8-1.9c1.8,0,3.7,0.8,5.6,2.1l2.5-3.6c-2.2-1.8-4.9-2.7-8-2.7
		c-4.4,0-7.5,2.6-7.5,6.5v0.1c0,4.3,2.8,5.5,7.1,6.6c3.6,0.9,4.3,1.5,4.3,2.7v0.1C162.4,157.6,161.2,158.4,159.3,158.4"/>
	<polygon class="st0" points="185.8,162.3 185.8,145.1 192.4,145.1 192.4,140.7 174.6,140.7 174.6,145.1 181.1,145.1 181.1,162.3 	
		"/>
	<path class="st0" d="M205.4,140.5L205.4,140.5l-9.2,21.8h4.8l2-4.8h9.1l2,4.8h0h4.9l-9.2-21.8H205.4z M204.6,153.3l2.9-7l2.9,7
		H204.6z"/>
	<polygon class="st0" points="241.5,140.7 241.5,154 231.4,140.7 227,140.7 227,162.3 231.7,162.3 231.7,148.6 242.1,162.3 
		246.1,162.3 246.1,140.7 	"/>
	<path class="st1" d="M137.8,87.9h16.6v31.5l2.4,0.2c1.7,0.1,3.5,0.2,5.2,0.3c15.9,1,32.6,2.4,49.4,4c0.1,0,5.6,0.5,15.6,1.4V120
		c-9.7-0.8-15.1-1.3-15.1-1.3c-16.9-1.7-33.5-3-49.5-4.1c-0.9-0.1-1.9-0.1-2.8-0.2V87.9v-2.6v-2.6V54.1v-5.3h-5.2v5.3h-16.6v-5.3
		h-5.2v5.3v28.6v3.8v1.4l0,25.1c-6.3-0.2-22.7-0.7-31.7-0.9v-19v-2.6V88V66.9v-3.7h-5.2v3.7H83.3v-3.7h-5.2v3.7V88v2.6v2.6v19
		c-4,0.1-11.5,0.3-13.5,0.4l-2,0.1c-15.3,0-27.8-12.6-27.8-28c0-15.5,12.5-28,27.9-28c1.2,0,2.4,0.1,3.7,0.3l2.4,0.3l0.5-2.4
		c1.3-6.5,7.3-11.1,14.1-10.4l2.3,0.2l0.5-2.2c2.3-9.7,7.8-18.6,15.6-24.9c8-6.5,17.7-9.9,28.1-9.9c11.2,0,22,4.2,30.3,11.8
		c8.2,7.6,13.3,17.9,14.4,29l0.2,1.9l1.8,0.4c10.9,2.6,18.5,12.3,18.5,23.6c0,12.6-9.4,23-21.8,24.1l0.5,5.2
		c15.1-1.5,26.5-14.1,26.5-29.4c0-13.1-8.4-24.4-20.7-28.2c-1.5-11.7-7.1-22.5-15.8-30.6c-9.2-8.5-21.2-13.2-33.8-13.2
		c-11.4,0-22.5,3.9-31.3,11.1C90.3,20,84.4,29.1,81.6,39.1c-7.7,0.2-14.4,5.2-16.8,12.4c-0.7,0-1.4-0.1-2.1-0.1
		c-18.2,0-33.1,14.9-33.1,33.3S44.4,118,62.6,118l2.2-0.1c0.1,0,0.2,0,0.3,0c3.2-0.1,15.5-0.4,15.6-0.4l2.5-0.1V93.2h12.4v24.2
		l2.6,0c9.9,0.1,36.6,1,36.8,1l2.7,0.1L137.8,87.9z M137.8,59.3h16.6v23.4h-16.6V59.3z M95.7,88H83.3V72.1h12.4V88z"/>
</g>
</svg>
