<svg xmlns="http://www.w3.org/2000/svg" width="20" height="20" fill="none"><g><path d="M 9.11 8.542 L 11.967 8.543 L 14.823 3.379 L 11.14 6.708 Z M 13.101 10.063 L 13.689 11.125 L 19.991 11.125 L 15.559 3.113 L 12.408 8.809 Z M 9.11 14.238 L 5.958 19.934 L 15.117 19.934 L 11.967 14.238 Z M 19.991 11.656 L 13.689 11.656 L 13.048 12.814 L 12.408 13.972 L 15.559 19.668 Z" fill="var(--token-3c841586-7a93-4cf7-b07f-5d79722bd04c, rgb(22, 22, 22))"></path><path d="M 7.583 5.962 L 4.432 0.266 L 0 8.277 L 6.302 8.277 Z M 8.025 11.391 L 5.168 16.553 L 10.882 11.391 Z M 7.583 11.125 L 6.302 8.809 L 0 8.809 L 4.433 16.819 Z M 10.882 5.696 L 14.033 0 L 4.874 0 L 8.023 5.695 Z" fill="var(--token-9c803b7e-d459-49de-9487-3a205aa0b6ca, rgb(15, 98, 254))"></path></g></svg>