
<svg xmlns="http://www.w3.org/2000/svg" width="20.033" height="19.821" fill="none" overflow="visible"><g><path d="M 9.152 8.429 L 12.009 8.43 L 14.865 3.266 L 11.182 6.594 Z M 13.143 9.949 L 13.731 11.012 L 20.033 11.012 L 15.601 3 L 12.45 8.696 Z M 9.152 14.125 L 6 19.821 L 15.159 19.821 L 12.009 14.125 Z M 20.033 11.543 L 13.731 11.543 L 13.09 12.701 L 12.45 13.859 L 15.601 19.555 Z" fill="rgb(2, 14, 33)"></path><path d="M 7.583 5.962 L 4.432 0.266 L 0 8.277 L 6.302 8.277 Z M 8.025 11.391 L 5.168 16.553 L 10.882 11.391 Z M 7.583 11.125 L 6.302 8.809 L 0 8.809 L 4.433 16.819 Z M 10.882 5.696 L 14.033 0 L 4.874 0 L 8.023 5.695 Z" fill="var(--token-9c803b7e-d459-49de-9487-3a205aa0b6ca, rgb(15, 98, 254))"></path></g></svg>